<?xml version="1.0" encoding="UTF-8"?>
<svg width="883px" height="256px" viewBox="0 0 883 256" version="1.1" xmlns="http://www.w3.org/2000/svg" xmlns:xlink="http://www.w3.org/1999/xlink">
    <!-- Generator: Sketch 59.1 (86144) - https://sketch.com -->
    <title>logo</title>
    <desc>Created with Sketch.</desc>
    <g id="页面-1" stroke="none" stroke-width="1" fill="none" fill-rule="evenodd">
        <g id="logo" fill-rule="nonzero">
            <polygon id="路径" fill="#2366D1" points="110.851252 128 221.702503 192 110.851252 256 0 192"></polygon>
            <polygon id="路径" fill="#609DFF" points="110.851252 64 221.702503 128 110.851252 192 0 128"></polygon>
            <polygon id="路径" fill="#A4C7FF" points="110.851252 0 221.702503 64 110.851252 128 0 64"></polygon>
            <path d="M402.6,192.2 C403.400004,191.933332 404.13333,191.899999 404.8,192.1 C405.46667,192.300001 405.8,192.799996 405.8,193.6 L406.2,201.4 C406.333334,203.133342 405.40001,204.33333 403.4,205 C398.999978,206.466674 394.46669,207.53333 389.8,208.2 C385.13331,208.86667 379.266702,209.2 372.2,209.2 C348.999884,209.2 330.533402,202.133404 316.8,188 C309.999966,181.066632 304.966683,173.000046 301.7,163.8 C298.433317,154.599954 296.8,144.200058 296.8,132.6 C296.8,109.799886 303.666598,91.333404 317.4,77.2 C331.40007,63.066596 349.666554,56 372.2,56 C375.400016,56 378.299987,56.066666 380.9,56.2 C383.500013,56.333334 386.033321,56.533332 388.5,56.8 C390.966679,57.066668 393.399988,57.399998 395.8,57.8 C398.200012,58.200002 400.73332,58.73333 403.4,59.4 C405.328581,59.7857162 406.265307,60.9772861 406.210204,62.9747438 L405.8,71.2 C405.533332,73.066676 404.533342,73.66667 402.8,73 C397.599974,71.266658 392.66669,70.100003 388,69.5 C383.33331,68.899997 378.066696,68.6 372.2,68.6 C353.399906,68.6 338.400056,74.59994 327.2,86.6 C316.799948,98.200058 311.6,113.533238 311.6,132.6 C311.6,142.200048 312.866654,150.866628 315.4,158.6 C317.933346,166.333372 321.799974,173.066638 327,178.8 C337.800054,190.80006 352.86657,196.733334 372.2,196.6 C377.800028,196.466666 383.366639,196.06667 388.9,195.4 C394.433361,194.73333 398.999982,193.666674 402.6,192.2 Z M523,154.2 C517.959975,141.719938 513.109016,129.375042 508.447005,117.165015 L506.9,113.1 C501.766641,99.566599 496.400028,85.866736 490.8,72 C485.899976,84.133394 481.076577,96.1390259 476.329694,108.017171 L474.3,113.1 C468.899973,126.633401 463.400028,140.333264 457.8,154.2 L523,154.2 Z M557.8,203.8 C558.46667,205.666676 557.866676,206.6 556,206.6 L546.4,206.6 C545.599996,206.6 544.900003,206.466668 544.3,206.2 C543.699997,205.933332 543.133336,205.13334 542.6,203.8 L527.8,167 L452.6,167 L450.444895,172.338784 C448.662583,176.760548 446.914294,181.114264 445.2,185.4 C442.799988,191.40003 440.400012,197.533302 438,203.8 C437.466664,205.13334 436.900003,205.933332 436.3,206.2 C435.699997,206.466668 435.000004,206.6 434.2,206.6 L424.8,206.6 C422.933324,206.6 422.33333,205.666676 423,203.8 L481.8,60.6 C482.46667,58.999992 483.666658,58.2 485.4,58.2 L497.6,58.2 C499.333342,58.2 500.53333,58.999992 501.2,60.6 L557.8,203.8 Z M614.2,71 L614.2,203.8 C614.2,205.666676 613.266676,206.6 611.4,206.6 L602.2,206.6 C600.333324,206.6 599.4,205.666676 599.4,203.8 L599.4,71 L558.2,71 C556.333324,71 555.4,70.066676 555.4,68.2 L555.4,61.4 C555.4,59.533324 556.333324,58.6 558.2,58.6 L655.8,58.6 C657.666676,58.6 658.6,59.533324 658.6,61.4 L658.6,68.2 C658.6,70.066676 657.666676,71 655.8,71 L614.2,71 Z M745.6,154.2 C740.559975,141.719938 735.709016,129.375042 731.047005,117.165015 L729.5,113.1 C724.366641,99.566599 719.000028,85.866736 713.4,72 C708.499976,84.133394 703.676577,96.1390259 698.929694,108.017171 L696.9,113.1 C691.499973,126.633401 686.000028,140.333264 680.4,154.2 L745.6,154.2 Z M780.4,203.8 C781.06667,205.666676 780.466676,206.6 778.6,206.6 L769,206.6 C768.199996,206.6 767.500003,206.466668 766.9,206.2 C766.299997,205.933332 765.733336,205.13334 765.2,203.8 L750.4,167 L675.2,167 L673.044895,172.338784 C671.262583,176.760548 669.514294,181.114264 667.8,185.4 C665.399988,191.40003 663.000012,197.533302 660.6,203.8 C660.066664,205.13334 659.500003,205.933332 658.9,206.2 C658.299997,206.466668 657.600004,206.6 656.8,206.6 L647.4,206.6 C645.533324,206.6 644.93333,205.666676 645.6,203.8 L704.4,60.6 C705.06667,58.999992 706.266658,58.2 708,58.2 L720.2,58.2 C721.933342,58.2 723.13333,58.999992 723.8,60.6 L780.4,203.8 Z M803.300558,204.890306 L802.4,204.6 C800.266656,203.93333 799.399998,202.733342 799.8,201 L800.6,191.8 C800.866668,190.733328 801.299997,190.000002 801.9,189.6 C802.500003,189.199998 803.2,189.266664 804,189.8 C808.66669,192.333346 813.366643,194.166661 818.1,195.3 C822.833357,196.433339 828.266636,197 834.4,197 C844.133382,197 852.099969,194.33336 858.3,189 C864.500031,183.66664 867.6,176.133382 867.6,166.4 C867.6,162.533314 866.100015,158.666686 863.1,154.8 C860.099985,150.933314 855.93336,147.266684 850.6,143.8 C845.93331,140.866652 840.666696,137.800016 834.8,134.6 C828.933304,131.399984 823.33336,127.900019 818,124.1 C812.66664,120.299981 808.200018,116.033357 804.6,111.3 C800.999982,106.566643 799.2,101.066698 799.2,94.8 C799.2,88.399968 800.53332,82.766691 803.2,77.9 C805.86668,73.033309 809.433311,68.966683 813.9,65.7 C818.366689,62.433317 823.466638,59.933342 829.2,58.2 C834.933362,56.466658 840.79997,55.6 846.8,55.6 C852.000026,55.6 856.59998,55.899997 860.6,56.5 C864.60002,57.1 868.93331,58.133326 873.6,59.6 C875.525936,60.2419785 876.339097,61.3785016 876.039506,63.0096013 L874.4,71 C873.999998,73.266678 872.866676,73.866672 871,72.8 C867.266648,71.066658 863.633351,69.900003 860.1,69.3 C856.566649,68.699997 852.066694,68.4 846.6,68.4 C842.199978,68.4 838.033353,68.933328 834.1,70 C830.166647,71.066672 826.766681,72.666656 823.9,74.8 C821.033319,76.933344 818.733342,79.599984 817,82.8 C815.266658,86.000016 814.4,89.799978 814.4,94.2 C814.4,97.666684 815.566655,100.933318 817.9,104 C820.233345,107.066682 823.099983,109.93332 826.5,112.6 C829.900017,115.26668 833.566647,117.699989 837.5,119.9 L840.164503,121.396453 C842.480874,122.702962 844.658377,123.946348 846.697037,125.126625 L848.2,126 C852.600022,128.533346 856.866646,131.13332 861,133.8 C865.133354,136.46668 868.799984,139.46665 872,142.8 C875.200016,146.13335 877.79999,149.79998 879.8,153.8 C881.80001,157.80002 882.8,162.399974 882.8,167.6 C882.8,174.2667 881.433347,180.199974 878.7,185.4 C875.966653,190.600026 872.333356,194.999982 867.8,198.6 C863.266644,202.200018 858.033363,204.966657 852.1,206.9 C846.166637,208.833343 840.000032,209.8 833.6,209.8 C827.733304,209.8 822.500023,209.400004 817.9,208.6 C813.542083,207.842101 808.675647,206.605548 803.300558,204.890306 L803.300558,204.890306 Z" id="CATAS" fill="#000000"></path>
        </g>
    </g>
</svg>